<svg width="20px" height="20px" viewBox="0 0 94 44" xmlns="http://www.w3.org/2000/svg">
  <g fill-rule="nonzero" stroke="none" stroke-width="1" fill="none">
    <path fill="var(--geist-foreground)"
          d="M64.662 40.439c.584-1.941.39-3.882-.584-5.047-.973-1.164-2.335-1.94-4.087-2.135L26.13 32.87c-.195 0-.39-.194-.584-.194-.195-.194-.195-.388 0-.582.195-.388.39-.583.778-.583l34.057-.388c4.087-.194 8.369-3.494 9.926-7.376l1.946-5.046c0-.194.194-.388 0-.582C70.112 8.218 61.159.843 50.65.843c-9.73 0-18.099 6.21-21.018 14.945-1.946-1.358-4.282-2.135-7.006-1.94-4.67.388-8.368 4.27-8.952 8.928-.195 1.165 0 2.33.194 3.494C6.278 26.464.051 32.675.051 40.439c0 .776 0 1.359.195 2.135 0 .388.389.582.583.582H63.3c.39 0 .78-.194.78-.582l.583-2.135z"></path>
    <path fill="var(--geist-foreground)"
          d="M75.366 18.7h-.973c-.195 0-.39.194-.584.388l-1.363 4.658c-.583 1.941-.389 3.882.584 5.047.973 1.165 2.336 1.941 4.087 2.135l7.2.388c.195 0 .39.194.585.194.194.195.194.389 0 .583-.195.388-.39.582-.779.582l-7.395.388c-4.087.194-8.368 3.494-9.925 7.376l-.39 1.747c-.194.194 0 .582.39.582H92.49c.39 0 .584-.194.584-.582.39-1.553.779-3.3.779-5.047 0-10.093-8.369-18.44-18.488-18.44"></path>
  </g>
</svg>
