<svg width="20px" height="20px" viewBox="0 0 20 16" fill="none" aria-label="directory">
  <path
    d="M18.7839 3.86928C18.5957 3.68105 18.3866 3.57647 18.2192 3.51373V2.42614C18.2192 1.77778 17.6964 1.2549 17.0689 1.2549H8.99571L7.90812 0.25098C7.76172 0.104575 7.53165 0 7.30159 0H2.09374C1.44538 0 0.943417 0.522876 0.943417 1.17124V3.4719C0.734267 3.55556 0.546032 3.68105 0.378712 3.82745C0.106816 4.12026 -0.0186741 4.47582 0.0022409 4.83137L0.399627 14.6614C0.420542 15.3935 1.04799 16 1.80093 16H17.3826C18.1356 16 18.7421 15.4144 18.7839 14.6614L19.1813 4.83137C19.2022 4.51765 19.0558 4.14118 18.7839 3.86928ZM1.84276 3.40915V1.19216C1.84276 1.04575 1.94734 0.920261 2.09374 0.920261H7.25976L8.49374 2.00784C8.5774 2.04967 8.66107 2.11242 8.78656 2.11242H17.0689C17.1944 2.11242 17.3199 2.23791 17.3199 2.38431V3.40915H1.84276ZM17.3826 15.1216H1.78002C1.50812 15.1216 1.29897 14.9124 1.29897 14.6614L0.901587 4.83137C0.901587 4.68497 0.943417 4.58039 1.02708 4.47582C1.13165 4.37124 1.25714 4.32941 1.40355 4.32941H17.78C17.9055 4.32941 18.0519 4.39216 18.1565 4.47582C18.2402 4.55948 18.282 4.68497 18.282 4.81046L17.8637 14.6405C17.8428 14.9124 17.6336 15.1216 17.3826 15.1216Z"
    fill="var(--geist-foreground)"></path>
</svg>
