<svg width="20px" height="20px" viewBox="0 0 58 56" aria-label="now for github" xmlns="http://www.w3.org/2000/svg">
  <g fill="none" fill-rule="evenodd">
    <path fill="var(--geist-foreground)"
      d="M26.4975598 0C11.8659873 0 0 11.4760513 0 25.633467c0 11.3249885 7.59234476 20.9316377 18.1227171 24.321109 1.3258541.2360356 1.8090181-.5554704 1.8090181-1.235253 0-.6089718-.0227754-2.2203083-.03579-4.3587909-7.3710979 1.5483936-8.9263329-3.4366784-8.9263329-3.4366784-1.20546975-2.9614601-2.94290798-3.749819-2.94290798-3.749819-2.40605912-1.5893065.18220326-1.5578351.18220326-1.5578351 2.65984222.1809607 4.05890302 2.6420253 4.05890302 2.6420253 2.3637619 3.9166175 6.2030449 2.7852202 7.712729 2.1290412.2407686-1.6553964.9256576-2.7852202 1.6821265-3.4256635-5.8841892-.6467376-12.07096593-2.8465894-12.07096593-12.6688178 0-2.7978088 1.03302743-5.0873542 2.72816843-6.8780777-.2733049-.6483111-1.1826943-3.2557178.2602904-6.7836633 0 0 2.2238559-.689224 7.2865036 2.6278631 2.1132324-.5696326 4.3810123-.8528754 6.6341508-.8638903 2.2515117.0110149 4.5176648.2942577 6.6341508.8638903 5.0593941-3.3170871 7.2799964-2.6278631 7.2799964-2.6278631 1.4462383 3.5279455.5368488 6.1353522.2651708 6.7836633 1.6983946 1.7907235 2.723288 4.0802689 2.723288 6.8780777 0 9.8474055-6.1965377 12.0142124-12.0986218 12.6483614.9500598.7915061 1.7976303 2.3556354 1.7976303 4.7458893 0 3.427237-.0325363 6.1920008-.0325363 7.0322875 0 .6860769.4782836 1.4838772 1.8220326 1.2336795C45.4141625 46.5556633 53 36.9553083 53 25.633467 53 11.4760513 41.1340127 0 26.4975598 0"></path>
    <g stroke="var(--geist-foreground)" transform="translate(37 35)">
      <circle cx="10" cy="10" r="10" fill="var(--geist-background" stroke-width=".625"></circle>
      <path stroke-width="2" d="M6 9.98494089l2.91552757 2.78019561L14.6806641 7"></path>
    </g>
  </g>
</svg>
