<svg width="20px" height="20px" viewBox="0 0 78 80" aria-label="open email" xmlns="http://www.w3.org/2000/svg">
  <g id="Page-1" stroke="none" stroke-width="1" fill="none" fill-rule="evenodd">
    <path
      d="M76.386,30.7493948 C76.288,30.5713948 76.181,30.4153948 76.054,30.2873948 C76.011,30.2423948 75.939,30.1763948 75.853,30.0933948 C75.415,29.5993948 74.931,29.1513948 74.38,28.7833948 C67.86,23.0633948 44.984,3.62239481 42.691,1.29339481 C40.976,-0.444605185 36.888,-0.417605185 35.173,1.29339481 C33.382,3.07839481 7.735,24.8153948 2.697,29.4533948 C2.507,29.6223948 2.318,29.7863948 2.145,29.9733948 C2.079,30.0393948 2,30.1123948 1.957,30.1613948 C1.877,30.2453948 1.804,30.3613948 1.733,30.4803948 C0.665,31.8403948 0,33.5383948 0,35.4183948 L0,72.0403948 C0,76.4363948 3.513,80.0003948 7.843,80.0003948 L70.06,80.0003948 C74.392,80.0003948 77.898,76.4383948 77.898,72.0403948 L77.898,35.4183948 C77.897,33.6653948 77.327,32.0643948 76.386,30.7493948 L76.386,30.7493948 Z M41.552,61.3573948 C40.364,62.5453948 37.517,62.5683948 36.323,61.3573948 C35.777,60.8043948 33.481,58.4723948 30.512,55.4533948 L47.381,55.4533948 C44.307,58.5693948 41.968,60.9423948 41.552,61.3573948 L41.552,61.3573948 Z M65.706,36.7893948 C64.877,37.6663948 57.841,44.8303948 51.56,51.2083948 C51.554,51.2083948 51.55,51.2033948 51.542,51.2033948 L26.336,51.2033948 C19.961,44.7243948 12.821,37.4603948 12.222,36.8433948 C10.91,35.4963948 12.579,32.9003948 14.827,32.9003948 L63.116,32.9003948 C65.593,32.8993948 66.79,35.6413948 65.706,36.7893948 L65.706,36.7893948 Z M51.543,40.5893948 L25.793,40.5893948 C24.638,40.5893948 23.7,41.5413948 23.7,42.7143948 C23.7,43.8863948 24.638,44.8353948 25.793,44.8353948 L51.543,44.8353948 C52.697,44.8353948 53.634,43.8863948 53.634,42.7143948 C53.634,41.5423948 52.697,40.5893948 51.543,40.5893948 L51.543,40.5893948 Z"
      id="Shape" fill="var(--geist-foreground)"></path>
  </g>
</svg>
