<svg width="20px" height="20px" fill="none" aria-label="new project" viewBox="0 0 30 25" xmlns="http://www.w3.org/2000/svg">
  <path
    d="M28.718 5.916a2.394 2.394 0 0 0-.863-.544V3.709c0-.991-.8-1.79-1.76-1.79H13.754L12.09.384A1.36 1.36 0 0 0 11.163 0H3.201C2.21 0 1.442.8 1.442 1.79v3.518c-.32.128-.607.32-.863.544-.416.447-.608.99-.576 1.534l.608 15.03c.032 1.118.991 2.046 2.142 2.046h23.823a2.145 2.145 0 0 0 2.142-2.047l.608-15.029c.032-.48-.192-1.055-.608-1.47zm-25.9-.704v-3.39c0-.223.16-.415.383-.415h7.898l1.887 1.663c.128.064.255.16.447.16h12.663c.192 0 .384.191.384.415v1.567H2.817zM26.575 23.12H2.72c-.415 0-.735-.32-.735-.704L1.378 7.386c0-.223.064-.383.192-.543a.77.77 0 0 1 .576-.224h25.037c.192 0 .416.096.576.224.128.128.192.32.192.512l-.64 15.028c-.032.416-.352.736-.735.736z"
    fill="var(--geist-foreground)"></path>
  <path d="M15.467 15.041h2.973v-1.012h-2.973v-2.973h-1.012v2.973h-2.974v1.012h2.974v2.974h1.012V15.04z"
        fill="var(--geist-foreground)"></path>
</svg>
