<svg width="20px" height="20px" viewBox="0 0 17.78 18.7" fill="var(--geist-foreground)" aria-label="questions" xmlns="http://www.w3.org/2000/svg">
  <path
    d="M14.78 0H2.98a3 3 0 0 0-3 3v8a3 3 0 0 0 3 3h3.9l5 4.7V14h2.87a3 3 0 0 0 3-3V3a3 3 0 0 0-2.97-3zm2 11a2 2 0 0 1-2 2H10.9v3.4l-3.33-3.13-.3-.27H3a2 2 0 0 1-2-2V3a2 2 0 0 1 2-2h11.78a2 2 0 0 1 2 2zM8.62 9.45a.85.85 0 1 0 .78.84.8.8 0 0 0-.78-.85zm.18-6.27a2.15 2.15 0 0 0-2.32 2.24h1.3a.94.94 0 0 1 .93-1 .85.85 0 0 1 .92.88c0 .5-.2.77-.8 1.2a1.7 1.7 0 0 0-.86 1.75v.3h1.26V8.3c0-.53.18-.8.8-1.2a2 2 0 0 0 1-1.82A2.07 2.07 0 0 0 8.8 3.18z"></path>
</svg>
