<svg width="20px" height="20px" viewBox="0 0 79 70" aria-label="react meetup" xmlns="http://www.w3.org/2000/svg">
  <g fill="var(--geist-foreground)" fill-rule="nonzero" stroke="none" stroke-width="1">
    <path
      d="M78.888 35c0-5.206-6.536-10.14-16.555-13.2C64.645 11.614 63.617 3.509 59.089.914c-1.043-.61-2.264-.898-3.596-.898v3.572c.738 0 1.332.144 1.83.417 2.184 1.249 3.131 6.006 2.393 12.125-.177 1.506-.466 3.092-.82 4.71-3.146-.77-6.583-1.362-10.195-1.746-2.168-2.964-4.416-5.655-6.68-8.01 5.234-4.853 10.148-7.512 13.488-7.512V0c-4.416 0-10.196 3.14-16.041 8.586C33.623 3.172 27.843.064 23.427.064v3.572c3.324 0 8.253 2.643 13.488 7.465a75.698 75.698 0 0 0-6.632 7.993c-3.629.384-7.065.977-10.212 1.762a48.22 48.22 0 0 1-.835-4.645c-.754-6.12.177-10.877 2.344-12.142.482-.289 1.108-.417 1.847-.417V.08c-1.349 0-2.57.288-3.629.897-4.512 2.595-5.523 10.684-3.195 20.84C6.615 24.892.113 29.81.113 35c0 5.206 6.535 10.14 16.554 13.2-2.312 10.187-1.284 18.292 3.244 20.887 1.043.609 2.264.897 3.612.897 4.416 0 10.197-3.14 16.041-8.586 5.845 5.414 11.625 8.522 16.041 8.522 1.349 0 2.57-.288 3.629-.897 4.512-2.595 5.524-10.684 3.195-20.84C72.385 45.123 78.888 40.19 78.888 35zM57.982 24.316a72.025 72.025 0 0 1-2.168 6.327 75.75 75.75 0 0 0-2.104-3.844 86.635 86.635 0 0 0-2.312-3.749c2.28.337 4.48.753 6.584 1.266zm-7.355 17.06a85.307 85.307 0 0 1-3.87 6.118c-2.392.209-4.816.32-7.257.32a89.5 89.5 0 0 1-7.226-.304 88.272 88.272 0 0 1-3.885-6.087 83.366 83.366 0 0 1-3.34-6.375 83.458 83.458 0 0 1 3.324-6.391 85.307 85.307 0 0 1 3.87-6.12 83.748 83.748 0 0 1 7.257-.32c2.425 0 4.85.113 7.226.305a88.272 88.272 0 0 1 3.885 6.087 83.366 83.366 0 0 1 3.34 6.375 89.61 89.61 0 0 1-3.324 6.391v.001zm5.187-2.083a68.536 68.536 0 0 1 2.216 6.375c-2.104.513-4.32.945-6.616 1.282a88.452 88.452 0 0 0 2.312-3.797 90.917 90.917 0 0 0 2.088-3.86zM39.532 56.384a66.085 66.085 0 0 1-4.464-5.125c1.445.064 2.923.112 4.416.112 1.51 0 3.003-.032 4.464-.112a62.565 62.565 0 0 1-4.416 5.125zM27.586 46.95a72.61 72.61 0 0 1-6.584-1.266 72.025 72.025 0 0 1 2.168-6.327 75.75 75.75 0 0 0 2.104 3.844 104.847 104.847 0 0 0 2.312 3.749zm11.866-33.334a66.085 66.085 0 0 1 4.464 5.125 99.638 99.638 0 0 0-4.416-.112c-1.51 0-3.003.032-4.464.112a62.565 62.565 0 0 1 4.416-5.125zM27.57 23.05a88.452 88.452 0 0 0-4.4 7.641 68.536 68.536 0 0 1-2.216-6.375c2.104-.497 4.32-.93 6.616-1.266zM13.038 43.105C7.354 40.686 3.677 37.515 3.677 35c0-2.515 3.677-5.703 9.361-8.105 1.381-.593 2.89-1.122 4.448-1.618.915 3.14 2.12 6.407 3.613 9.755-1.477 3.332-2.666 6.584-3.565 9.707a48.854 48.854 0 0 1-4.496-1.634zm8.639 22.89c-2.184-1.249-3.131-6.006-2.393-12.125.177-1.506.466-3.092.82-4.71 3.146.77 6.583 1.362 10.195 1.746 2.168 2.964 4.416 5.655 6.68 8.01-5.234 4.853-10.148 7.512-13.488 7.512-.722-.016-1.332-.16-1.814-.433zM59.764 53.79c.754 6.12-.177 10.877-2.344 12.142-.482.289-1.108.417-1.847.417-3.324 0-8.253-2.643-13.488-7.465a75.698 75.698 0 0 0 6.632-7.993c3.629-.384 7.065-.977 10.212-1.762.37 1.618.658 3.172.835 4.661zm6.182-10.684c-1.381.593-2.89 1.122-4.448 1.618-.915-3.14-2.12-6.407-3.613-9.755 1.477-3.332 2.666-6.584 3.565-9.707a51.007 51.007 0 0 1 4.512 1.634c5.684 2.419 9.361 5.59 9.361 8.105-.016 2.515-3.693 5.703-9.377 8.105z"></path>
    <polygon points="39.5 28.4666667 45.5411765 39.6666667 33.4588235 39.6666667"></polygon>
  </g>
</svg>
