<svg width="20px" height="20px" viewBox="0 0 17 16" aria-label="configuration" xmlns="http://www.w3.org/2000/svg">
  <path
    d="M15 9.5l-1.28.2c-.12.4-.27.78-.46 1.13l.75 1.06c.4.35.4 1 0 1.4l-.7.7c-.4.4-1 .4-1.4 0l-1.04-.77c-.35.2-.72.34-1.12.46l-.2 1.3c0 .53-.45 1-1 1h-1c-.55 0-1-.47-1-1l-.2-1.3c-.4-.1-.78-.27-1.13-.46l-1.06.75c-.38.4-1 .4-1.4 0l-.7-.7c-.4-.4-.4-1.03 0-1.4l.74-1.08c-.2-.35-.34-.72-.46-1.12l-1.26-.2c-.55 0-1-.43-1-1v-1c0-.53.45-1 1-1l1.28-.2c.13-.4.28-.76.47-1.12L2.08 4.1c-.4-.38-.4-1 0-1.4l.7-.7c.4-.4 1.02-.4 1.4 0l1.07.74c.35-.2.7-.34 1.1-.46l.2-1.26c0-.55.47-1 1-1h1c.57 0 1 .45 1 1l.2 1.28c.4.13.8.28 1.15.47l1.06-.76c.4-.4 1-.4 1.4 0l.7.7c.4.4.4 1.03 0 1.4l-.73 1.07c.2.36.34.73.46 1.13l1.28.2c.56 0 1 .45 1 1v1c0 .55-.44 1-1 1L15 9.5zm-.42-1.98l-1.57-.26a5.14 5.14 0 0 0-.9-2.2l.92-1.28c.2-.2.2-.52 0-.7-.2-.2-.5-.2-.7 0l-1.3.92a4.99 4.99 0 0 0-2.2-.9l-.25-1.58c0-.28-.22-.5-.5-.5s-.5.22-.5.5L7.32 3.1c-.8.12-1.55.44-2.18.9l-1.3-.93c-.2-.2-.5-.2-.7 0-.2.2-.2.5 0 .7l.92 1.3c-.47.64-.8 1.38-.9 2.2l-1.58.25c-.28 0-.5.22-.5.5s.22.5.5.5l1.57.26c.12.8.44 1.55.9 2.18l-.92 1.3c-.2.2-.2.5 0 .7.2.2.5.2.7 0l1.3-.92c.64.46 1.38.78 2.2.9l.25 1.58c0 .28.22.5.5.5s.5-.22.5-.5l.26-1.58c.8-.12 1.55-.44 2.18-.9l1.3.93c.2.2.5.2.7 0 .2-.2.2-.5 0-.7l-.92-1.3c.47-.64.8-1.38.9-2.2l1.58-.25c.28 0 .5-.22.5-.5s-.22-.5-.5-.5zM8 10.5a2.5 2.5 0 0 1 0-5 2.5 2.5 0 0 1 0 5zm0-4c-.83 0-1.5.67-1.5 1.5S7.17 9.5 8 9.5 9.5 8.83 9.5 8 8.83 6.5 8 6.5z"
    fill="var(--geist-foreground)" fill-rule="nonzero" stroke-width="0"></path>
</svg>
