<svg width="20px" height="20px" viewBox="0 0 22 22" fill="none" xmlns="http://www.w3.org/2000/svg">
  <path
    d="M16.6436 12.6167L19.6636 9.59668C20.5805 8.64736 21.0879 7.3759 21.0764 6.05615C21.0649 4.7364 20.5356 3.47395 19.6023 2.54071C18.6691 1.60746 17.4066 1.0781 16.0869 1.06663C14.7671 1.05517 13.4957 1.56251 12.5463 2.47939L10.8148 4.20083M5.48946 9.51614L2.46939 12.5362C1.55251 13.4855 1.04516 14.757 1.05663 16.0767C1.0681 17.3965 1.59746 18.6589 2.5307 19.5922C3.46395 20.5254 4.7264 21.0548 6.04615 21.0663C7.3659 21.0777 8.63736 20.5704 9.58668 19.6535L11.3081 17.9321M2.00631 2.00624L20.1267 20.63"
    stroke="var(--geist-foreground)" stroke-width="1.5" stroke-linecap="round" stroke-linejoin="round"></path>
</svg>
