<svg width="20px" height="20px" viewBox="0 0 52 64" xmlns="http://www.w3.org/2000/svg">
  <path fill-rule="evenodd" clip-rule="evenodd" fill="var(--geist-foreground)"
    d="M44 63.9971H8C3.582 63.9971 0 60.415 0 55.998V31.998C0 27.58 3.582 23.9971 8 23.9971V18C8 8.06 16.059 0 26 0C35.255 0 42.791 7.01105 43.798 15.998H39.798C38.819 9.22205 33.046 4 26 4C18.268 4 12 10.269 12 18V23.9971H36H40H44V23.998C48.418 23.998 52 27.58 52 31.998V55.998C52.001 60.415 48.418 63.9971 44 63.9971ZM48.001 31.998C48.001 29.788 46.209 27.9971 44.001 27.9971H8.00098C5.79298 27.9971 4.00098 29.788 4.00098 31.998V55.998C4.00098 58.204 5.79298 59.9951 8.00098 59.9951H44.001C46.21 59.9951 48.001 58.204 48.001 55.998V31.998ZM34 47.9951H22C20.896 47.9951 20 47.0991 20 45.9971C20 44.8921 20.896 43.9951 22 43.9951H34C35.105 43.9951 36 44.8911 36 45.9971C36 47.1001 35.105 47.9951 34 47.9951Z"></path>
</svg>
