<svg width="20px" height="20px" viewBox="0 0 20 18" aria-label="users" xmlns="http://www.w3.org/2000/svg">
  <g stroke="var(--geist-foreground)" stroke-width=".9" fill="none">
    <path
      d="M7.953 10.993c-.077.04-.144.07-.21.1-.22.102-.403.185-.792.36l-.05.024c-.61.277-.91.416-1.27.585-.43.208-.79.496-1.07.873-.53.728-.84 1.56-.95 2.487-.08.74.13 1.063.81 1.335l.07.025.06.02c.9.3 1.83.437 3.11.505 2.36.127 4.59.044 6.72-.273.37-.055.67-.138 1.26-.33l.16-.05c.42-.13.64-.494.64-.952-.02-1.803-.78-3.097-2.32-3.8-.17-.08-.32-.147-.64-.292-.6-.27-.92-.418-1.28-.584l-.08-.044.05-.073c.1-.17.167-.32.21-.47.087-.31.227-.59.468-.96.333-.5.498-1.01.45-1.55-.02-.24-.122-.5-.29-.67v-.44c0-.45-.01-.7-.04-.98-.14-1.16-.85-1.95-1.95-2.2-.66-.15-1.333-.14-2.004.04-1.25.33-1.96 1.4-1.897 2.56.008.15.01.32.008.54l-.002.28-.003.25c-.24.25-.31.57-.266.96.08.65.34 1.23.78 1.77.02.31.136.58.344.9l.026.04z"></path>
    <path
      d="M15.056 8.04c.063-.11.105-.186.144-.264.052-.108.094-.208.125-.31.085-.29.208-.547.384-.808.34-.51.52-1.036.5-1.6-.02-.33-.08-.56-.29-.73V3.97c0-.39 0-.64-.02-.9-.1-1.24-.83-2.105-1.99-2.355-.51-.115-1.03-.13-1.57-.06-1.11.15-1.95.95-2.17 2.064-.03.14-.03.25-.02.47v.48l.33.06c.16.03.19.03.27.04 1.09.12 1.85.89 2.01 2.05.01.14.03.25.05.51l.01.08c.06.58.11.9.21 1.27.16.54.062 1.11-.27 1.67-.13.21-.247.43-.42.76l-.29.55-.186.34.333.19c-.01-.01.32.19.42.24l.1.05c.713.35 1.24.6 1.76.844.625.295 1.026.71 1.223 1.303.117.34.38.46.7.41l.432-.05c.23-.025.33-.04.46-.056l.24-.03c.47-.065.694-.1.97-.16.61-.122.88-.5.834-1.132l-.01-.12c0-.06 0-.06-.01-.12-.132-1.58-.85-2.73-2.18-3.37-.34-.165-.62-.294-1.24-.57l-.08-.038-.652-.3c-.043-.02-.09-.046-.144-.074zm-10.113 0c-.16.083-.153.077-.263.127-.19.09-.35.162-.688.312H3.98c-.75.33-1.08.48-1.48.72-1.3.76-1.89 2.02-1.87 3.68.007.41.25.72.642.84l.066.02c.126.03.194.05.286.06l.654.08.33.04c.402.05.696.09.985.13.304.04.54-.11.637-.4.208-.62.63-1.05 1.302-1.36.62-.29 1.14-.54 1.634-.78l.11-.06c.096-.05.416-.24.47-.27L8.09 11l-.18-.35-.17-.314-.163-.316c-.156-.295-.27-.5-.39-.705-.263-.445-.353-.948-.29-1.544.01-.11.04-.22.103-.43v-.01c.124-.4.166-.6.15-.88-.003-.1.003-.21.02-.35l.037-.24.024-.17c.13-.84.56-1.41 1.31-1.71.14-.05.27-.09.56-.16l.24-.06.17-.04.29-.05.04-.29c.1-1.04-.51-2.1-1.45-2.52-.59-.25-1.19-.3-2-.21-1.19.13-2 .88-2.25 2.08-.1.51-.12 1.03-.07 1.61 0-.07-.01-.01.14-.12-.4.29-.46.61-.4 1.17.07.55.3 1.04.68 1.55l.05.06c.01.02.02.02.01-.02.07.4.2.74.39 1.05z"></path>
  </g>
</svg>
