<svg width="20px" height="20px" viewBox="0 0 15 15" fill="none" xmlns="http://www.w3.org/2000/svg"
     aria-label="fullscreen">
  <path
    d="M0 0V0.548781V4.20732H1.09756V1.86928L4.5503 5.32203L5.32774 4.5503L1.875 1.09756H4.20732V0H0.548781H0ZM10.7927 0V1.09756H13.125L9.67226 4.5503L10.4497 5.32203L13.9024 1.86928V4.20732H15V0.548781V0H14.4512H10.7927ZM4.5503 9.67226L1.09756 13.125V10.7927H0V14.4512V15H0.548781H4.20732V13.9024H1.86928L5.32774 10.444L4.5503 9.67226ZM10.4497 9.67226L9.67226 10.444L13.1307 13.9024H10.7927V15H14.4512H15V14.4512V10.7927H13.9024V13.125L10.4497 9.67226Z"
    fill="#fff"></path>
</svg>
