<svg width="20px" height="20px" viewBox="0 0 20 10" fill="none" xmlns="http://www.w3.org/2000/svg"
     aria-label="infinity">
  <path
    d="M15.0754 1.0002C13.3488 1.0002 12.058 2.2114 11.021 3.1848L10.9074 3.2982C10.7064 3.4866 10.6976 3.8008 10.8876 4C11.0776 4.1992 11.3948 4.2082 11.5958 4.0196L11.71 3.9056C12.712 2.9654 13.748 1.993 15.0756 1.993C16.5124 1.993 17.9984 3.1178 17.9984 5.0002C17.9984 6.8824 16.5124 8.0072 15.0756 8.0072C13.0388 8.0072 10.6184 4.9478 10.3326 4.623C10.0762 4.3316 7.5124 1 4.9246 1C2.9954 1 1 2.496 1 4.9998C1 7.5036 2.9954 8.9998 4.9246 8.9998C6.6512 8.9998 7.942 7.7886 8.979 6.8152L9.0676 6.7318C9.2686 6.5434 9.2774 6.2292 9.0874 6.03C8.8974 5.8308 8.5802 5.8218 8.3792 6.0104L8.29 6.0942C7.288 7.0344 6.252 8.0068 4.9244 8.0068C3.4876 8.0068 2.0016 6.882 2.0016 4.9996C2.0016 3.1174 3.4876 1.9926 4.9244 1.9926C6.9946 1.9926 9.3082 4.9686 9.5676 5.2638C9.8532 5.589 12.521 9 15.0754 9C17.0046 9 19 7.504 19 5.0002C19 2.4964 17.0046 1.0002 15.0754 1.0002Z"
    fill="#fff"></path>
</svg>
