<svg width="20px" height="20px" viewBox="0 0 20 20" xmlns="http://www.w3.org/2000/svg" aria-label="upload">
  <path
    d="M12.657 14.7c-.097 0-.187-.025-.282-.03v-1.146h.563v-.03c2.196-.153 3.937-2.044 3.937-4.38 0-2.354-1.77-4.26-3.992-4.386-.265-2.004-1.893-3.55-3.883-3.55-2.174 0-3.938 1.84-3.938 4.115-2.174 0-3.937 1.842-3.937 4.116 0 2.272 1.763 4.114 3.938 4.114H6.75V14.7H5.625v-.063c-.187.022-.37.063-.563.063C2.268 14.7 0 12.33 0 9.41c0-2.56 1.735-4.692 4.04-5.186C4.515 1.814 6.556 0 9 0c2.248 0 4.13 1.542 4.792 3.66C16.197 4.207 18 6.438 18 9.116c0 3.084-2.393 5.585-5.343 5.585zm-6.87-3.695c-.216-.224-.216-.59 0-.812L9.126 6.7c.025-.027.02-.05.033-.064.02-.022.052-.015.075-.032.083-.07.177-.116.288-.125.012-.002.02-.01.032-.01.023 0 .03.005.038.005.132.008.252.062.344.15.008.007.02.004.027.012.016.033 3.375 3.556 3.375 3.556.214.224.214.588 0 .812-.215.224-.563.224-.777 0l-2.438-2.55v8.957c0 .325-.252.588-.563.588-.31 0-.562-.264-.562-.588V8.456l-2.438 2.55c-.214.223-.562.223-.776 0z"
    fill-rule="nonzero" fill="#fff"></path>
</svg>
