<svg fill="none" viewBox="0 0 20 20" height="20px" width="20px" xmlns="http://www.w3.org/2000/svg">
  <path
    d="m17.69 15.324c-0.2882 0.6659-0.6294 1.2788-1.0247 1.8424-0.5388 0.7682-0.98 1.3-1.32 1.5953-0.527 0.4847-1.0917 0.7329-1.6964 0.747-0.4341 0-0.9577-0.1235-1.5671-0.3741-0.6114-0.2494-1.1733-0.3729-1.687-0.3729-0.53887 0-1.1168 0.1235-1.7349 0.3729-0.61906 0.2506-1.1178 0.3812-1.4991 0.3941-0.57988 0.0247-1.1579-0.2306-1.7348-0.767-0.36824-0.3212-0.82883-0.8718-1.3806-1.6518-0.592-0.8329-1.0787-1.7988-1.46-2.9-0.40835-1.1894-0.61306-2.3412-0.61306-3.4562 0-1.2773 0.276-2.379 0.82882-3.3022 0.43447-0.74153 1.0125-1.3265 1.7359-1.7559 0.72341-0.42942 1.5051-0.64824 2.3468-0.66224 0.46059 0 1.0646 0.14247 1.8152 0.42247 0.74847 0.28094 1.2291 0.42341 1.4398 0.42341 0.1575 0 0.6914-0.16659 1.5964-0.4987 0.8559-0.308 1.5783-0.43553 2.17-0.3853 1.6036 0.12941 2.8083 0.76153 3.6095 1.9004-1.4342 0.86894-2.1436 2.086-2.1295 3.6473 0.013 1.2161 0.4542 2.2281 1.3212 3.0316 0.393 0.3729 0.8318 0.6612 1.32 0.8659-0.1059 0.307-0.2176 0.6012-0.3365 0.8835zm-3.6776-14.472c0 0.95319-0.3482 1.8432-1.0424 2.6669-0.8376 0.9793-1.8508 1.5452-2.9495 1.4559-0.014-0.11436-0.0221-0.23471-0.0221-0.36118 0-0.91506 0.3984-1.8944 1.1058-2.6951 0.3531-0.40541 0.8023-0.7425 1.347-1.0114 0.5436-0.2649 1.0577-0.41139 1.5412-0.43647 0.0141 0.12742 0.02 0.25486 0.02 0.38128v1.2e-5z"
    fill="var(--geist-foreground)"></path>
</svg>
