<svg width="20px" height="20px" viewBox="0 0 10 8" version="1.1" aria-label="cloud" xmlns="http://www.w3.org/2000/svg">
  <g stroke="none" stroke-width="1.5" fill="none" fill-rule="evenodd">
    <g fill="#000" fill-rule="nonzero">
      <path
        d="M7.1875,7.48406218 L7.1875,7.5 L2.8125,7.5 C1.25921875,7.5 0,6.24106753 0,4.6874414 C0,3.29444362 1.01546875,2.14551345 2.345,1.9220713 C2.7190625,0.807985575 3.75984375,0 5,0 C6.12265625,0 7.08375,0.6622013 7.53484375,1.61331485 C8.9334375,1.85347613 10,3.06412633 10,4.53118815 C9.99984375,6.1171587 8.7528125,7.40124795 7.1875,7.48406218 Z M7.0875,2.19285818 C6.81890625,1.28846435 5.99125,0.624700525 4.99984375,0.624700525 C3.89765625,0.624700525 2.99484375,1.4423738 2.8434375,2.50286465 C2.8328125,2.5027084 2.82296875,2.49989583 2.81234375,2.49989583 C1.60421875,2.49989583 0.62484375,3.47913497 0.62484375,4.68728515 C0.62484375,5.89543532 1.60421875,6.87498698 2.81234375,6.87498698 L7.18734375,6.87498698 L7.18734375,6.85904915 C8.40734375,6.77748495 9.37484375,5.7721515 9.37484375,4.5310319 C9.37484375,3.25616157 8.35515625,2.22348382 7.0875,2.19285818 Z"></path>
    </g>
  </g>
</svg>
