<svg width="20px" height="20px" viewBox="0 0 19 19" aria-label="close full screen" xmlns="http://www.w3.org/2000/svg">
  <g id="Page-1" stroke="none" stroke-width="1" fill="none" fill-rule="evenodd">
    <g id="Shape" fill="var(--geist-foreground)" fill-rule="nonzero">
      <path
        d="M6.74848,6.74123 L6.74848,6.046108 L6.74848,1.41196 L5.35824,1.41196 L5.35824,4.37347 L0.98476,-8.8817842e-16 L8.8817842e-16,0.97751 L4.37348,5.35099 L1.41921,5.35099 L1.41921,6.74123 L6.053358,6.74123 L6.74848,6.74123 Z M17.5808,6.74123 L17.5808,5.35099 L14.6265,5.35099 L19,0.97751 L18.0152,0 L13.6417,4.37347 L13.6417,1.41196 L12.2515,1.41196 L12.2515,6.046108 L12.2515,6.74123 L12.9466,6.74123 L17.5808,6.74123 Z M0.98476,19 L5.35824,14.6265 L5.35824,17.5808 L6.74848,17.5808 L6.74848,12.9466 L6.74848,12.2515 L6.053358,12.2515 L1.41921,12.2515 L1.41921,13.6417 L4.38072,13.6417 L0,18.0225 L0.98476,19 Z M18.0152,19 L19,18.0225 L14.6193,13.6417 L17.5808,13.6417 L17.5808,12.2515 L12.9466,12.2515 L12.2515,12.2515 L12.2515,12.9466 L12.2515,17.5808 L13.6417,17.5808 L13.6417,14.6265 L18.0152,19 Z"></path>
    </g>
  </g>
</svg>
