<svg viewBox="0 0 12 12" height="20px" width="20px" aria-label="info" xmlns="http://www.w3.org/2000/svg">
  <g id="Page-1" stroke="none" stroke-width="1" fill="none" fill-rule="evenodd">
    <g id="Group">
      <circle id="Oval-2" fill="#eaeaea" cx="6" cy="6" r="6"></circle>
      <path
        d="M5.64453125,9 L6.31640625,9 L6.31640625,4.7890625 L5.64453125,4.7890625 L5.64453125,9 Z M5.98046875,3.93359375 C6.11067773,3.93359375 6.22135371,3.88737025 6.3125,3.79492188 C6.40364629,3.7024735 6.44921875,3.59244855 6.44921875,3.46484375 C6.44921875,3.33463477 6.40364629,3.22395879 6.3125,3.1328125 C6.22135371,3.04166621 6.11067773,2.99609375 5.98046875,2.99609375 C5.85286395,2.99609375 5.742839,3.04166621 5.65039062,3.1328125 C5.55794225,3.22395879 5.51171875,3.33463477 5.51171875,3.46484375 C5.51171875,3.59244855 5.55794225,3.7024735 5.65039062,3.79492188 C5.742839,3.88737025 5.85286395,3.93359375 5.98046875,3.93359375 Z"
        id="i" fill="#000"></path>
    </g>
  </g>
</svg>
