<svg height="20px" width="20px" viewBox="0 0 15 19" fill="none" aria-label="lamda" xmlns="http://www.w3.org/2000/svg">
  <path
    d="M3.5 14.435h1.816l1.99-4.622h.13l1.217 3.267c.404 1.084.901 1.42 2.047 1.42.317 0 .591-.032.8-.097v-1.246c-.115.02-.238.045-.346.045-.519 0-.771-.174-.995-.736l-2.133-5.39C7.212 5.016 6.55 4.5 5.114 4.5c-.28 0-.49.032-.742.09v1.246c.195-.025.288-.038.404-.038.872 0 1.124.206 1.628 1.4l.238.582L3.5 14.435z"
    fill="var(--geist-foreground)"></path>
  <rect x="0.5" y="0.5" width="14" height="18" rx="1.5" stroke="var(--geist-foreground)"></rect>
</svg>
