<svg fill="none" viewBox="0 0 20 20" width="20px" height="20px" xmlns="http://www.w3.org/2000/svg">
  <g clip-path="url(#a)">
    <path
      d="M10.419 0c-.1291 0-.2625.00667-.3991.0175C6.4974.295 7.4315 4.0233 7.3782 5.2658c-.06416.91084-.25 1.6283-.87583 2.5175-.7375.87584-1.7725 2.2917-2.2633 3.7675-.23167.6934-.34167 1.4034-.23917 2.0742-.0325.0283-.06333.0567-.0925.1125-.21667.2233-.37417.5008-.55167.6992-.16583.1658-.40416.2225-.66416.3333-.26084.1133-.54834.2242-.72.5675-.075.1567-.11334.3275-.11.5008 0 .1659.0225.3342.04583.4467.04833.3325.09667.6075.0325.8083-.20667.5667-.2325.955-.0875 1.2375.145.2784.44583.3909.7825.5009.67583.1666 1.5917.1125 2.3125.4991.77167.3892 1.555.5592 2.18.3917.43833-.0958.80833-.3858 1.0067-.7875.48916-.0025 1.025-.2242 1.8834-.2783.5825-.0484 1.3116.2225 2.1483.1658.0208.1125.0525.1658.095.2783l.0025.0025c.3258.6484.9275.9434 1.57.8925.6425-.05 1.3267-.4466 1.8808-1.0883.5259-.6375 1.4025-.9033 1.9817-1.2525.29-.1658.5242-.3908.5408-.7108.0192-.3334-.1658-.6767-.595-1.1475v-.0809l-.0025-.0025c-.1416-.1666-.2083-.4458-.2816-.7716-.0709-.3342-.1517-.655-.41-.8717h-.0025c-.0492-.045-.1025-.0558-.1567-.1125-.0467-.0317-.1008-.0517-.1583-.0533.3591-1.065.22-2.125-.1442-3.0784-.4442-1.175-1.2208-2.1983-1.8125-2.9025-.6633-.8375-1.3133-1.6308-1.3008-2.8075C13.395 3.3225 13.57.005 10.4191 0zm.4409 2.8375h.0108c.1775 0 .33.05167.4867.165.1591.1125.275.27667.3658.44417.0875.21583.1317.3825.1383.60333 0-.01667.005-.03333.005-.04917v.08667c-.0016-.00583-.0033-.0125-.0033-.0175l-.0033-.02a1.50686 1.50686 0 0 1-.125.58833c-.0392.10417-.0992.2-.1775.27917-.0242-.01333-.0475-.025-.0734-.035-.0875-.0375-.1658-.05333-.2375-.11083-.0591-.02334-.1208-.0425-.1825-.055.0409-.04917.1209-.11084.1517-.165.0442-.10667.0683-.22.0733-.335v-.01584c.0017-.1125-.015-.22583-.0508-.33333-.0375-.1125-.0842-.1675-.1525-.27833-.07-.055-.1392-.11-.2225-.11h-.0133c-.0775 0-.1467.025-.2184.11-.0791.07833-.1383.1725-.1708.27833-.0442.10583-.07.22-.075.33333v.01584c.0017.07416.0067.14916.0167.2225-.1609-.05584-.365-.1125-.50585-.16834a1.35964 1.35964 0 0 1-.015-.16583v-.01667c-.00667-.22.03583-.43833.12495-.64083.0684-.1825.1934-.33833.3584-.44417a.82103.82103 0 0 1 .495-.16583zm-2.4684.04917h.03c.11833 0 .225.04.3325.1125.12166.1075.22.24.28666.3875.075.16583.1175.33416.1275.55583v.00333c.00584.11167.005.1675-.00166.22167v.06667c-.025.00583-.04667.015-.06917.02-.12667.04583-.22833.1125-.3275.16666a.90432.90432 0 0 0 .0025-.2225v-.0125c-.01-.11083-.0325-.16583-.06833-.2775-.02584-.085-.07334-.16083-.13834-.2225-.04083-.0375-.09583-.05666-.1525-.05333h-.0175c-.05916.005-.10833.03417-.155.11-.05333.06417-.0875.1425-.1.225a.78655.78655 0 0 0-.01916.27583V4.255c.01.1125.03083.1675.0675.27833.0375.11167.08083.16667.1375.22334.00916.0075.0175.015.02833.02-.05833.0475-.0975.05833-.14667.11333-.03083.02333-.06666.05-.10916.05667-.08667-.10417-.16334-.21667-.22917-.335-.08-.175-.12167-.365-.12917-.55584-.01416-.18833.00917-.37666.06667-.55666.04583-.16417.12667-.31584.23583-.44584.10667-.11083.21667-.16666.34834-.16666zm1.1425 1.4217c.27583 0 .60995.05417 1.0124.3325.2442.16667.4359.22417.8775.39h.0025c.2125.11334.3375.22167.3984.3325v-.10916c.0608.1225.065.265.0133.39166-.1025.25917-.43.53667-.8867.7025v.00167c-.2233.1125-.4175.2775-.6458.3875-.23.1125-.48999.24333-.84332.2225a.9489.9489 0 0 1-.37333-.05583c-.09167-.05-.18167-.105-.26834-.165-.1625-.1125-.3025-.27667-.51-.3875v-.00417h-.00416c-.33334-.205-.51334-.42667-.57167-.5925-.0575-.22333-.00417-.39083.16083-.5.18667-.1125.31667-.22583.4025-.28.08667-.06167.11917-.085.14667-.10917h.00167v-.0025c.14083-.16833.36333-.39083.69916-.50083.11584-.03.245-.05417.38834-.05417zm2.3324 1.7858c.2992 1.1808.9975 2.8958 1.4467 3.7275.2383.44503.7125 1.3825.9183 2.52.13-.0042.2742.015.4275.0533.5384-1.3925-.455-2.8892-.9075-3.305-.1841-.1675-.1933-.27917-.1025-.27917.4909.445 1.1375 1.31 1.3717 2.2975.1075.4459.1325.92.0175 1.3917.0558.0233.1125.0508.1708.0558.86.445 1.1775.7817 1.025 1.2809v-.0359c-.0508-.0025-.1 0-.1508 0h-.0125c.1258-.3891-.1517-.6875-.8875-1.02-.7625-.3333-1.3717-.28-1.4758.3875-.0059.0359-.01.055-.0142.1125-.0567.0192-.1158.0442-.1742.0534-.3583.2233-.5516.5575-.6608.9891-.1083.4442-.1417.9634-.1708 1.5575v.0025c-.0175.2784-.1425.6984-.2659 1.1259-1.25.8933-2.9833 1.2816-4.4574.2783-.0925-.1608-.205-.3117-.335-.4442-.06167-.1041-.14-.1975-.22917-.2783.15167 0 .28167-.0242.3875-.0558.12083-.0559.21417-.1567.26167-.2784.09-.2225 0-.5808-.2875-.9691-.2875-.3892-.77584-.8292-1.49-1.2675-.525-.3325-.82167-.725-.95834-1.1634-.1375-.445-.11916-.9041-.0125-1.3708.20417-.8917.7275-1.7583 1.0617-2.3025.08917-.05417.03083.1125-.34.81167-.33.62583-.95083 2.0808-.10167 3.2116.03167-.8241.215-1.6375.53917-2.3966.47-1.065 1.4525-2.92 1.53-4.39.04.03.18083.1125.24083.16833.18167.11083.31667.2775.49167.3875.17583.1675.3975.27917.73.27917.0325.0025.0625.005.0925.005.3425 0 .60752-.11167.83002-.22334.2416-.11166.4341-.27833.6166-.33333h.0042c.3892-.1125.6967-.335.8708-.58333zm1.8217 7.465c.0308.5008.2858 1.0375.735 1.1475.49.1116 1.195-.2775 1.4925-.6375l.1758-.0075c.2625-.0067.4809.0083.7059.2225l.0025.0025c.1733.1658.2541.4425.3258.73.0708.3341.1283.65.3408.8883.405.4392.5375.755.53.95l.0025-.005v.015l-.0025-.01c-.0125.2183-.1541.33-.415.4958-.525.3342-1.455.5934-2.0475 1.3084-.515.6141-1.1425.9491-1.6966.9925-.5534.0441-1.0309-.1667-1.3117-.7484l-.0042-.0025c-.175-.3341-.1-.8541.0467-1.4083.1467-.5567.3567-1.1208.3858-1.5817.0309-.595.0634-1.1125.1625-1.5116.1-.3875.2567-.6642.5342-.82l.0375-.0184v-.0016zm-9.0125.0408h.00834c.04416 0 .0875.0042.13083.0117.31333.0458.58833.2775.8525.6266l.75833 1.3867.0025.0025c.2025.4442.62834.8867.99084 1.365.36166.4983.64166.9425.6075 1.3083v.005c-.0475.62-.39917.9567-.9375 1.0784-.5375.1125-1.2667.0016-1.9958-.3867-.80666-.4467-1.765-.3908-2.3808-.5017-.3075-.055-.50917-.1675-.6025-.3341-.0925-.1659-.09417-.5009.1025-1.025v-.0025l.00167-.0025c.0975-.2784.025-.6275-.0225-.9325-.04584-.3342-.06917-.5909.03583-.7834.13333-.2783.33-.3325.57417-.4441.24583-.1125.53416-.1684.76333-.3909h.00167v-.0025c.21333-.2233.37083-.5008.55666-.6983.15834-.1675.31667-.28.5525-.28zm5.9658-7.5617c-.3625.1675-.78745.44584-1.24.44584-.45167 0-.80834-.2225-1.0658-.38834-.12916-.11166-.23333-.22333-.31166-.27916-.13667-.11167-.12-.27834-.06167-.27834.09083.01334.1075.1125.16583.1675.08.055.17917.16584.30084.2775.2425.16667.56666.38917.97166.38917.40417 0 .87749-.2225 1.165-.38833.1625-.1125.3708-.27834.54-.38917.13-.11417.1242-.22333.2325-.22333.1075.01333.0283.11166-.1225.2775-.1508.1125-.3842.27916-.575.39v-.00084h.0008zm-.90162-1.32v-.01833c-.005-.01583.01083-.035.02417-.04167.06166-.03583.15-.0225.21666.00334.05249 0 .13329.05583.12499.1125-.005.04083-.0708.055-.11249.055-.04583 0-.07666-.03584-.1175-.05667-.04333-.015-.12166-.00667-.13583-.05417zm-.45917 0c-.01666.04834-.09416.04084-.13833.055-.03917.02084-.07167.05667-.11583.05667-.0425 0-.10917-.01583-.11417-.05667-.0075-.055.07333-.11083.125-.11083.0675-.02583.15333-.03917.21583-.00417.01584.0075.03.025.025.04167v.0175h.0025v.00083z"
      fill="var(--geist-foreground)"></path>
  </g>
  <defs>
    <clipPath id="a">
      <path fill="var(--geist-background)" d="M0 0h20v20H0z"></path>
    </clipPath>
  </defs>
</svg>
