<svg width="16" height="16" viewBox="0 0 16 16" fill="none" xmlns="http://www.w3.org/2000/svg">
  <g>
    <path
      d="M15.8675 7.97834C15.0572 7.1679 13.8066 6.75711 12.15 6.75711C11.7993 6.75711 11.4291 6.77607 11.047 6.81319L7.05811 3.04363L8.01068 2.09131C8.18724 1.91465 8.18724 1.62843 8.01053 1.45167L6.68874 0.12968C6.51914 -0.0399715 6.21876 -0.0399715 6.04915 0.12968L0.132505 6.04678C-0.0441515 6.22344 -0.0441515 6.50966 0.132404 6.68631L1.454 8.00791C1.5389 8.09271 1.65387 8.14039 1.77389 8.14039C1.89381 8.14039 2.00888 8.09271 2.09368 8.00791L3.04635 7.05558L6.81591 11.0443C6.66342 12.6128 6.76303 14.6473 7.98081 15.8651C8.06917 15.9534 8.18489 15.9976 8.30056 15.9976C8.41632 15.9976 8.53214 15.9533 8.6205 15.8651L11.9242 12.561L14.4546 15.0917C14.5431 15.18 14.6588 15.2241 14.7746 15.2241C14.8903 15.2241 15.0062 15.1799 15.0944 15.0917C15.2711 14.915 15.2711 14.6287 15.0944 14.452L12.5638 11.9215L15.8676 8.61802C16.0442 8.44132 16.0442 8.15514 15.8675 7.97834ZM8.33027 14.8756C7.59914 13.8164 7.59483 12.1839 7.73697 10.9361C7.75198 10.8036 7.7079 10.6711 7.61625 10.5744L3.38426 6.09591C3.30031 6.00711 3.18404 5.95628 3.06191 5.95452C3.05981 5.95452 3.05761 5.95452 3.05551 5.95452C2.93559 5.95452 2.82052 6.0022 2.73572 6.08695L1.77389 7.04858L1.09188 6.36662L6.369 1.08911L7.05121 1.77157L6.08948 2.73314C6.00313 2.81969 5.9554 2.93716 5.9571 3.05959C5.95885 3.18146 6.00998 3.29813 6.09878 3.38193L10.5768 7.61357C10.6737 7.70542 10.8057 7.7496 10.9385 7.73414C11.3615 7.68596 11.7691 7.66165 12.1499 7.66165C13.3239 7.66165 14.239 7.88523 14.8785 8.32775L8.33027 14.8756Z"
      fill="var(--geist-foreground)"></path>
  </g>
</svg>
