<svg width="20px" height="20px" fill="none" viewBox="0 0 72 72" xmlns="http://www.w3.org/2000/svg">
  <circle cx="36" cy="32" r="32" fill="#fff" filter="url(#filter_response)"></circle>
  <path
    d="M49 44.99h-8.987L36 49l-4.012-4.01H23c-1.657 0-3-1.343-3-3V22A3 3 0 0 1 23 19h26a3 3 0 0 1 3 2.999V41.99a3 3 0 0 1-3 2.998zm1-22.992a1 1 0 0 0-1-1H23a1 1 0 0 0-1 1v19.993a1 1 0 0 0 1 1.001h9.99l3.01 3.01 3.01-3.01H49a1 1 0 0 0 1-1V21.997z"
    fill="#000"></path>
  <path
    d="M29.89 31.945a1.25 1.25 0 0 0-1.78 1.757l1.78-1.757zM33.123 37l-.89.878a1.25 1.25 0 0 0 1.78 0l-.89-.878zm10.765-9.122a1.25 1.25 0 1 0-1.778-1.756l1.778 1.756zm-15.778 5.824l4.124 4.176 1.779-1.756-4.125-4.177-1.778 1.757zm5.903 4.176l9.875-10-1.778-1.756-9.876 10 1.779 1.756z"
    fill="#0076FF"></path>
  <defs>
    <filter id="filter_response" x="0" y="0" width="72" height="72" filterUnits="userSpaceOnUse">
      <feFlood result="BackgroundImageFix" flood-opacity="0"></feFlood>
      <feColorMatrix in="SourceAlpha" values="0 0 0 0 0 0 0 0 0 0 0 0 0 0 0 0 0 0 127 0"></feColorMatrix>
      <feOffset dy="4"></feOffset>
      <feGaussianBlur stdDeviation="2"></feGaussianBlur>
      <feColorMatrix values="0 0 0 0 0 0 0 0 0 0 0 0 0 0 0 0 0 0 0.12 0"></feColorMatrix>
      <feBlend in2="BackgroundImageFix" result="effect1_dropShadow"></feBlend>
      <feBlend in="SourceGraphic" in2="effect1_dropShadow" result="shape"></feBlend>
    </filter>
  </defs>
</svg>
