<svg width="20px" height="20px" fill="none" viewBox="0 0 69 72" xmlns="http://www.w3.org/2000/svg">
  <ellipse cx="34.5" cy="32" rx="30.5" ry="32" fill="#fff" filter="url(#filter_review)"></ellipse>
  <path
    d="M50 48H31v-2h17A1 1 0 0 0 49 45v-21H27v.003h-2V24h-4v14.002h-2V47 17a1 1 0 0 1 1-1h30a1 1 0 0 1 1 1v30a1 1 0 0 1-1 1zM25 18h-3a1 1 0 0 0-1 1v3h4v-4zm24 1a1 1 0 0 0-1-1H27v4h22v-3z"
    fill="#000"></path>
  <path
    d="M32.872 28.076a7.08 7.08 0 0 1 10.025 0 7.108 7.108 0 0 1 0 10.041c-2.523 2.527-6.46 2.724-9.237.645l-7.233 7.244-1.432-1.434 7.233-7.244c-2.076-2.781-1.879-6.725.644-9.252zM38 38a5 5 0 1 0 0-10 5 5 0 0 0 0 10z"
    fill="#0076FF"></path>
  <defs>
    <filter id="filter_review" x="0" y="0" width="69" height="72" filterUnits="userSpaceOnUse">
      <feFlood flood-opacity="0" result="BackgroundImageFix"></feFlood>
      <feColorMatrix in="SourceAlpha" values="0 0 0 0 0 0 0 0 0 0 0 0 0 0 0 0 0 0 127 0"></feColorMatrix>
      <feOffset dy="4"></feOffset>
      <feGaussianBlur stdDeviation="2"></feGaussianBlur>
      <feColorMatrix values="0 0 0 0 0 0 0 0 0 0 0 0 0 0 0 0 0 0 0.12 0"></feColorMatrix>
      <feBlend in2="BackgroundImageFix" result="effect1_dropShadow"></feBlend>
      <feBlend in="SourceGraphic" in2="effect1_dropShadow" result="shape"></feBlend>
    </filter>
  </defs>
</svg>
