<svg viewBox="0 0 40 40" version="1.1" width="20px" height="20px" aria-label="slack" xmlns="http://www.w3.org/2000/svg">
  <g stroke="none" stroke-width="1" fill="none" fill-rule="evenodd">
    <g transform="translate(-90.000000, 0.000000)" fill="#000">
      <path
        d="M106.457725,18.3238358 C107.057305,20.0909306 107.622886,21.7573909 108.206067,23.4749671 C110.024006,22.8659683 111.749949,22.287719 113.576288,21.6759248 C112.967908,19.8884635 112.401527,18.2232013 111.819946,16.5140113 C109.975608,17.1365877 108.230066,17.7256193 106.457725,18.3238358 M121.032839,23.5204923 C120.306863,23.7716793 119.578088,24.0140808 118.792914,24.2800435 C119.086904,25.179365 119.371695,26.0283692 119.641685,26.8817662 C120.014073,28.0566346 119.51209,29.1428488 118.422926,29.5437897 C117.340962,29.9423344 116.240599,29.4159998 115.783814,28.2642932 C115.61782,27.8449826 115.493824,27.4088995 115.347429,26.981602 C115.201834,26.5563012 115.051839,26.1329972 114.864645,25.5974776 C113.965875,25.8953878 113.096304,26.1829151 112.226733,26.4720398 C111.345962,26.7643592 110.465992,27.0578766 109.514423,27.374556 C109.795614,28.2299497 110.072805,29.0502011 110.334396,29.8752447 C110.741582,31.1587346 110.234399,32.3024543 109.103637,32.6738437 C107.963675,33.0480285 106.875311,32.4350363 106.440926,31.1699162 C106.166135,30.3696319 105.894944,29.5673509 105.598554,28.6963828 C104.734983,28.9795174 103.91541,29.2610545 103.087438,29.516235 C101.877878,29.8892218 100.731516,29.3405238 100.379928,28.2391346 C100.01954,27.111788 100.602321,26.0499337 101.82348,25.6210389 C102.575455,25.3566735 103.331029,25.1018924 104.083404,24.838725 C104.128203,24.8227513 104.160602,24.7708366 104.254999,24.6833804 C103.701017,23.0336926 103.137436,21.3548527 102.558655,19.6304876 C101.672285,19.9188136 100.847512,20.198354 100.01514,20.4543332 C98.8351794,20.8165377 97.7304163,20.2949952 97.3540288,19.2163685 C96.9672417,18.107791 97.5472224,16.9800451 98.7371827,16.5595364 C99.5355561,16.2776 100.341929,16.0200234 101.240299,15.7197171 C100.958309,14.8679175 100.691518,14.0728247 100.431926,13.2753358 C99.9927408,11.9255549 100.461125,10.8505224 101.665885,10.4308124 C102.790248,10.0398551 103.862612,10.6416657 104.321796,11.9347398 C104.603387,12.7282353 104.866178,13.5281202 105.164968,14.4054778 C106.969308,13.8036672 108.70045,13.2262166 110.52359,12.6180165 C110.235599,11.7658176 109.958808,10.9719228 109.699617,10.1728365 C109.272431,8.85620112 109.788014,7.68452741 110.944376,7.31832946 C112.095537,6.95412823 113.143102,7.55234473 113.595887,8.84182476 C113.875878,9.63851496 114.144669,10.4387992 114.439459,11.2997837 C115.32263,11.0098604 116.147402,10.7299206 116.978574,10.4683507 C118.152535,10.0993573 119.2193,10.6089196 119.623686,11.717497 C120.018473,12.8005165 119.491291,13.8943182 118.323329,14.3363914 C117.504557,14.6462819 116.666185,14.9050565 115.745815,15.2173431 C116.315796,16.9181469 116.876178,18.5901979 117.471758,20.368075 C118.253332,20.1089011 118.996907,19.8617075 119.740882,19.6157119 C121.145235,19.1512755 122.246799,19.6001375 122.679584,20.8125443 C123.09237,21.9678449 122.447992,23.0304978 121.032839,23.5204923 M129.984541,22.7565482 C129.442159,16.9129554 127.829412,11.3816492 124.91031,6.28203319 C122.247999,1.63087992 118.095337,-0.418550707 112.806713,0.0706450299 C110.304397,0.302264236 107.80728,0.82580351 105.369761,1.45636683 C101.80828,2.37765219 98.3507956,3.63278868 95.2884977,5.75450048 C92.3605954,7.7827659 90.5354563,10.4939086 90.1178702,14.0903958 C89.7714817,17.0750888 90.2298665,19.9767184 90.9542423,22.8511926 C91.9306097,26.7256229 93.1293697,30.5201844 95.2528989,33.9521421 C97.228833,37.1452924 99.958342,39.2745917 103.760215,39.8292798 C106.573721,40.2402042 109.341629,39.8596299 112.075938,39.2162876 C116.127803,38.2626554 120.09327,37.0542421 123.70475,34.9113651 C127.924609,32.4074816 130.168934,28.7786476 129.98894,23.5692122 C129.98894,23.4478118 130.016539,23.0995843 129.984541,22.7565482"></path>
    </g>
  </g>
</svg>
