<svg width="20px" height="20px" viewBox="0 0 24 24" fill="none" aria-label="website" xmlns="http://www.w3.org/2000/svg">
  <path fill="var(--geist-foreground)" fill-rule="evenodd" clip-rule="evenodd"
    d="M0 12C0 18.6133 5.38667 24 12 24C18.6133 24 24 18.6133 24 12C24 8.70349 22.6616 5.71176 20.5 3.54005V3.5L20.3981 3.43884C18.2316 1.31319 15.2653 0 12 0C5.38667 0 0 5.38667 0 12ZM10.7521 0.895931C11.1619 0.850168 11.5782 0.826667 12 0.826667C13.259 0.826667 14.4701 1.03609 15.6004 1.42193C15.6001 1.42794 15.5999 1.43398 15.5999 1.44004C15.5466 2.88004 16.4532 3.14671 17.1999 3.36004C17.4666 3.44004 17.7332 3.52004 17.9732 3.65337C17.7599 3.81337 17.5732 4.00004 17.5466 4.24004C17.4932 4.66671 17.8399 4.96004 18.1599 5.22671C18.2142 5.28101 18.2708 5.33305 18.3263 5.38415C18.4617 5.50872 18.5909 5.62767 18.6666 5.76004C19.1505 6.52417 19.1236 7.53158 19.0969 8.52667L19.0932 8.66671C19.0666 9.28004 19.0399 9.89337 19.1199 10.4534L19.1226 10.4681C19.1818 10.7951 19.455 12.3039 20.3999 12.96C20.6666 13.1467 20.9866 13.2534 21.3066 13.2534C21.4399 13.2534 21.5732 13.2267 21.6532 13.1734C22.1194 13.0698 22.4095 12.7147 22.6457 12.4256L22.6666 12.4C22.7466 12.2934 22.8532 12.16 22.9332 12.1067C22.9796 12.1299 23.0462 12.1934 23.1679 12.3499C22.9824 18.3487 18.043 23.1733 12 23.1733C5.84 23.1733 0.826667 18.16 0.826667 12C0.826667 10.0001 1.35507 8.12112 2.27957 6.49529C2.35504 7.11432 2.49767 7.68395 2.6403 8.15939L2.65958 8.22221C2.86874 8.90492 3.1248 9.74072 4.13364 9.99939C4.17364 10.0127 4.21363 10.0194 4.25363 10.0261C4.29363 10.0327 4.33363 10.0394 4.37363 10.0527C4.7203 10.1327 4.90697 10.1861 5.2003 10.3994C5.33881 10.4785 5.46264 10.5871 5.58268 10.6923C5.62442 10.7288 5.66569 10.765 5.70697 10.7994C5.94697 11.0127 6.21363 11.2261 6.50697 11.4127C6.74697 11.5461 6.9603 11.6527 7.14697 11.7327C7.57363 11.9194 7.78697 12.0261 7.89363 12.4794C7.97363 12.7461 7.97364 13.0394 7.97364 13.3594C7.97364 13.8927 8.0003 14.4261 8.2403 14.9327C8.42697 15.3594 8.74697 15.6527 9.0403 15.9194L9.04782 15.9262C9.33819 16.1902 9.60144 16.4295 9.73363 16.8261C9.86601 17.2761 9.84068 17.8839 9.81421 18.5189L9.81363 18.5327L9.81229 18.5676C9.75909 19.9474 9.69525 21.6034 11.467 22.0794C11.4936 22.1061 11.547 22.1061 11.5736 22.1061C11.6536 22.1061 11.7603 22.0527 11.6803 22.0794C11.787 21.9994 11.8403 21.8661 11.8136 21.7327C11.787 21.5994 11.7603 21.4394 11.7336 21.2794C11.7258 21.2249 11.7163 21.1646 11.7063 21.101C11.6476 20.7288 11.5703 20.2388 11.707 20.0794C11.867 19.8927 12.2136 19.7327 12.5336 19.5994C12.5682 19.5837 12.6037 19.5677 12.6388 19.5519C12.9016 19.4337 13.1754 19.3106 13.387 19.1461C14.0536 18.6394 14.187 18.1327 14.3203 17.4927L14.347 17.4127C14.4003 17.2261 14.5603 17.1194 14.827 16.9594C14.8866 16.9117 14.9568 16.864 15.0306 16.8139C15.1219 16.752 15.2185 16.6865 15.307 16.6127C15.8403 16.1594 16.6936 15.0394 16.7203 14.0261C16.7203 13.5727 16.5603 13.1994 16.267 12.9061C15.9736 12.6127 15.6003 12.4527 15.227 12.2927L14.747 12.0527C14.5435 11.9397 14.3975 11.7691 14.2441 11.5899C14.2165 11.5577 14.1887 11.5252 14.1603 11.4927C14.027 11.3061 13.8403 11.1194 13.627 10.9327C13.2089 10.5931 12.7141 10.535 12.2679 10.4826L12.2403 10.4794C12.0536 10.4527 11.8936 10.4261 11.7336 10.3994C11.5136 10.3594 11.2936 10.2744 11.0736 10.1894C11.0003 10.1611 10.927 10.1327 10.8536 10.1061C10.5603 9.97273 10.267 9.86606 9.94697 9.78606C9.2315 9.58869 8.60734 9.71087 7.96889 9.83585C7.91725 9.84596 7.86552 9.85608 7.81363 9.86606C7.76034 9.87494 7.69813 9.88679 7.63596 9.89863C7.51152 9.92234 7.38697 9.94606 7.33363 9.94606C7.30697 9.91939 7.2803 9.83939 7.22697 9.62606C7.04688 8.98287 6.49446 8.81129 6.07262 8.68027L6.02697 8.66606C5.49363 8.53273 5.41363 8.50606 5.5203 8.02606C5.62697 7.62606 5.9203 7.33273 6.34697 7.19939C6.8003 7.06606 7.2803 7.17273 7.6003 7.46606C7.70697 7.57273 7.89363 7.59939 8.02697 7.54606C8.18697 7.49273 8.29363 7.35939 8.29363 7.19939C8.34697 6.37273 8.90697 5.59939 9.41363 4.95939C10.0003 4.23939 10.3203 4.18606 11.307 4.21273H11.3603C11.6536 4.23939 12.0803 4.23939 12.3203 3.91939C12.4003 3.81273 12.507 3.59939 12.4003 3.27939C12.3203 2.98606 12.027 2.77273 11.787 2.61273C11.6803 2.53273 11.547 2.42606 11.4936 2.37273C11.387 2.21273 11.2803 1.97272 11.1736 1.73273C11.0631 1.46255 10.9356 1.15844 10.7521 0.895931ZM14 16.5473C14.0175 16.531 14.0353 16.5153 14.0533 16.5H14V16.5473ZM6.35391 9.73594C6.31079 9.68949 6.25116 9.65096 6.17303 9.61536L6.35391 9.73594Z"></path>
</svg>
