<svg width="20px" height="20px" viewBox="0 0 24 17" fill="none" xmlns="http://www.w3.org/2000/svg" aria-label="youtube">
  <path
    d="M11.9896 0.5C11.9896 0.5 5.02708 0.500006 3.27957 0.954088C2.34389 1.21552 1.57344 1.98599 1.312 2.93543C0.857921 4.68293 0.85791 8.30188 0.85791 8.30188C0.85791 8.30188 0.857921 11.9346 1.312 13.6546C1.57344 14.604 2.33013 15.3607 3.27957 15.6221C5.04084 16.09 11.9896 16.09 11.9896 16.09C11.9896 16.09 18.966 16.09 20.7134 15.6359C21.6629 15.3745 22.4196 14.6315 22.6673 13.6683C23.1351 11.9346 23.1351 8.31565 23.1351 8.31565C23.1351 8.31565 23.1489 4.68293 22.6673 2.93543C22.4196 1.98599 21.6629 1.2293 20.7134 0.981621C18.966 0.500022 11.9896 0.5 11.9896 0.5ZM9.77425 4.95828L15.5673 8.30188L9.77425 11.6317V4.95828Z"
    fill="#000"></path>
</svg>
